<mxfile host="65bd71144e">
    <diagram id="cv6nrvkM5rkajsPv_zpw" name="Page-1">
        <mxGraphModel dx="1183" dy="832" grid="1" gridSize="10" guides="1" tooltips="1" connect="1" arrows="1" fold="1" page="1" pageScale="1" pageWidth="1169" pageHeight="827" math="0" shadow="0">
            <root>
                <mxCell id="0"/>
                <mxCell id="1" parent="0"/>
                <mxCell id="7dcTGMmKO21Y_6NuJDPo-24" value="" style="strokeWidth=1;shadow=0;dashed=0;align=center;html=1;shape=mxgraph.mockup.containers.browserWindow;rSize=0;strokeColor=#666666;strokeColor2=#008cff;strokeColor3=#c4c4c4;mainText=,;recursiveResize=0;fillColor=#FFFFFF;" vertex="1" parent="1">
                    <mxGeometry x="20" y="20" width="1130" height="790" as="geometry"/>
                </mxCell>
                <mxCell id="7dcTGMmKO21Y_6NuJDPo-25" value="Welcome" style="strokeWidth=1;shadow=0;dashed=0;align=center;html=1;shape=mxgraph.mockup.containers.anchor;fontSize=17;fontColor=#666666;align=left;" vertex="1" parent="7dcTGMmKO21Y_6NuJDPo-24">
                    <mxGeometry x="60" y="12" width="110" height="26" as="geometry"/>
                </mxCell>
                <mxCell id="7dcTGMmKO21Y_6NuJDPo-26" value="https://www.fractal.io/welcome" style="strokeWidth=1;shadow=0;dashed=0;align=center;html=1;shape=mxgraph.mockup.containers.anchor;rSize=0;fontSize=17;fontColor=#666666;align=left;" vertex="1" parent="7dcTGMmKO21Y_6NuJDPo-24">
                    <mxGeometry x="130" y="60" width="250" height="26" as="geometry"/>
                </mxCell>
                <mxCell id="7dcTGMmKO21Y_6NuJDPo-27" value="" style="html=1;shadow=0;dashed=0;shape=mxgraph.bootstrap.rrect;rSize=5;fillColor=#ffffff;strokeColor=#999999;" vertex="1" parent="7dcTGMmKO21Y_6NuJDPo-24">
                    <mxGeometry x="800" y="150" width="260" height="510" as="geometry"/>
                </mxCell>
                <mxCell id="7dcTGMmKO21Y_6NuJDPo-28" value="Email address" style="fillColor=none;strokeColor=none;align=left;spacing=20;fontSize=14;" vertex="1" parent="7dcTGMmKO21Y_6NuJDPo-27">
                    <mxGeometry width="220" height="40" relative="1" as="geometry">
                        <mxPoint y="10" as="offset"/>
                    </mxGeometry>
                </mxCell>
                <mxCell id="7dcTGMmKO21Y_6NuJDPo-29" value="email@example.com" style="html=1;shadow=0;dashed=0;shape=mxgraph.bootstrap.rrect;rSize=5;fillColor=none;strokeColor=#999999;align=left;spacing=15;fontSize=14;fontColor=#6C767D;" vertex="1" parent="7dcTGMmKO21Y_6NuJDPo-27">
                    <mxGeometry width="180" height="30" relative="1" as="geometry">
                        <mxPoint x="20" y="50" as="offset"/>
                    </mxGeometry>
                </mxCell>
                <mxCell id="7dcTGMmKO21Y_6NuJDPo-30" value="Password" style="fillColor=none;strokeColor=none;align=left;spacing=20;fontSize=14;" vertex="1" parent="7dcTGMmKO21Y_6NuJDPo-27">
                    <mxGeometry width="220" height="40" relative="1" as="geometry">
                        <mxPoint y="90" as="offset"/>
                    </mxGeometry>
                </mxCell>
                <mxCell id="7dcTGMmKO21Y_6NuJDPo-31" value="Password" style="html=1;shadow=0;dashed=0;shape=mxgraph.bootstrap.rrect;rSize=5;fillColor=none;strokeColor=#999999;align=left;spacing=15;fontSize=14;fontColor=#6C767D;" vertex="1" parent="7dcTGMmKO21Y_6NuJDPo-27">
                    <mxGeometry width="180" height="30" relative="1" as="geometry">
                        <mxPoint x="20" y="130" as="offset"/>
                    </mxGeometry>
                </mxCell>
                <mxCell id="7dcTGMmKO21Y_6NuJDPo-32" value="Remember me" style="html=1;shadow=0;dashed=0;shape=mxgraph.bootstrap.rrect;rSize=2;fillColor=#EDEDED;strokeColor=#999999;align=left;fontSize=14;fontColor=#000000;labelPosition=right;verticalLabelPosition=middle;verticalAlign=middle;spacingLeft=5;spacingTop=-2;gradientColor=#DEDEDE;" vertex="1" parent="7dcTGMmKO21Y_6NuJDPo-27">
                    <mxGeometry width="10" height="10" relative="1" as="geometry">
                        <mxPoint x="20" y="180" as="offset"/>
                    </mxGeometry>
                </mxCell>
                <mxCell id="7dcTGMmKO21Y_6NuJDPo-33" value="Sign in" style="html=1;shadow=0;dashed=0;shape=mxgraph.bootstrap.rrect;rSize=5;fillColor=#0085FC;strokeColor=none;align=center;fontSize=14;fontColor=#FFFFFF;" vertex="1" parent="7dcTGMmKO21Y_6NuJDPo-27">
                    <mxGeometry width="70" height="40" relative="1" as="geometry">
                        <mxPoint x="20" y="210" as="offset"/>
                    </mxGeometry>
                </mxCell>
                <mxCell id="7dcTGMmKO21Y_6NuJDPo-34" value="" style="shape=line;strokeColor=#999999;perimeter=none;resizeWidth=1;" vertex="1" parent="7dcTGMmKO21Y_6NuJDPo-27">
                    <mxGeometry width="260" height="10" relative="1" as="geometry">
                        <mxPoint y="260" as="offset"/>
                    </mxGeometry>
                </mxCell>
                <mxCell id="7dcTGMmKO21Y_6NuJDPo-35" value="New around here? Sign up&lt;br&gt;&lt;br&gt;Forgot password?" style="html=1;fillColor=none;strokeColor=none;align=left;spacing=20;fontSize=14;" vertex="1" parent="7dcTGMmKO21Y_6NuJDPo-27">
                    <mxGeometry width="220" height="60" relative="1" as="geometry">
                        <mxPoint y="440" as="offset"/>
                    </mxGeometry>
                </mxCell>
                <mxCell id="7dcTGMmKO21Y_6NuJDPo-36" value="Sign in with Google" style="html=1;shadow=0;dashed=0;shape=mxgraph.bootstrap.rrect;rSize=5;strokeColor=none;strokeWidth=1;fillColor=#0085FC;fontColor=#FFFFFF;whiteSpace=wrap;align=center;verticalAlign=middle;spacingLeft=0;fontStyle=0;fontSize=16;spacing=5;" vertex="1" parent="7dcTGMmKO21Y_6NuJDPo-27">
                    <mxGeometry x="23.636363636363637" y="292.9787234042553" width="212.72727272727275" height="54.25531914893617" as="geometry"/>
                </mxCell>
                <mxCell id="7dcTGMmKO21Y_6NuJDPo-37" value="Sign in with Twitter" style="html=1;shadow=0;dashed=0;shape=mxgraph.bootstrap.rrect;rSize=5;strokeColor=none;strokeWidth=1;fillColor=#0085FC;fontColor=#FFFFFF;whiteSpace=wrap;align=center;verticalAlign=middle;spacingLeft=0;fontStyle=0;fontSize=16;spacing=5;" vertex="1" parent="7dcTGMmKO21Y_6NuJDPo-27">
                    <mxGeometry x="23.636363636363637" y="359.9997872340425" width="212.72727272727275" height="54.25531914893617" as="geometry"/>
                </mxCell>
            </root>
        </mxGraphModel>
    </diagram>
    <diagram id="71wAVwBnArHLotXfNCtF" name="Page-2">
        <mxGraphModel dx="1183" dy="832" grid="1" gridSize="10" guides="1" tooltips="1" connect="1" arrows="1" fold="1" page="1" pageScale="1" pageWidth="1169" pageHeight="827" math="0" shadow="0">
            <root>
                <mxCell id="0"/>
                <mxCell id="1" parent="0"/>
                <mxCell id="1e7Pqmk-MC3SepTsxGzd-5" value="" style="strokeWidth=1;shadow=0;dashed=0;align=center;html=1;shape=mxgraph.mockup.containers.browserWindow;rSize=0;strokeColor=#666666;strokeColor2=#008cff;strokeColor3=#c4c4c4;mainText=,;recursiveResize=0;" vertex="1" parent="1">
                    <mxGeometry x="70" y="34" width="980" height="716" as="geometry"/>
                </mxCell>
                <mxCell id="1e7Pqmk-MC3SepTsxGzd-6" value="Page 1" style="strokeWidth=1;shadow=0;dashed=0;align=center;html=1;shape=mxgraph.mockup.containers.anchor;fontSize=17;fontColor=#666666;align=left;" vertex="1" parent="1e7Pqmk-MC3SepTsxGzd-5">
                    <mxGeometry x="60" y="12" width="110" height="26" as="geometry"/>
                </mxCell>
                <mxCell id="1e7Pqmk-MC3SepTsxGzd-7" value="https://www.draw.io" style="strokeWidth=1;shadow=0;dashed=0;align=center;html=1;shape=mxgraph.mockup.containers.anchor;rSize=0;fontSize=17;fontColor=#666666;align=left;" vertex="1" parent="1e7Pqmk-MC3SepTsxGzd-5">
                    <mxGeometry x="130" y="60" width="250" height="26" as="geometry"/>
                </mxCell>
                <mxCell id="HW7C5CbWFx42icMQMc7w-1" value="" style="verticalLabelPosition=bottom;shadow=0;dashed=0;align=center;html=1;verticalAlign=top;strokeWidth=1;shape=mxgraph.mockup.containers.userMale;strokeColor=#666666;strokeColor2=#008cff;fillColor=#FFFFFF;" vertex="1" parent="1e7Pqmk-MC3SepTsxGzd-5">
                    <mxGeometry x="710" y="146" width="180" height="184" as="geometry"/>
                </mxCell>
                <mxCell id="HW7C5CbWFx42icMQMc7w-2" value="" style="shape=mxgraph.mockup.containers.marginRect;rectMarginTop=10;strokeColor=#666666;strokeWidth=1;dashed=0;rounded=1;arcSize=5;recursiveResize=0;fillColor=#FFFFFF;" vertex="1" parent="1e7Pqmk-MC3SepTsxGzd-5">
                    <mxGeometry x="55" y="156" width="460" height="324" as="geometry"/>
                </mxCell>
                <mxCell id="HW7C5CbWFx42icMQMc7w-3" value="Group" style="shape=rect;strokeColor=none;fillColor=#008cff;strokeWidth=1;dashed=0;rounded=1;arcSize=20;fontColor=#ffffff;fontSize=17;spacing=2;spacingTop=-2;align=left;autosize=1;spacingLeft=4;resizeWidth=0;resizeHeight=0;perimeter=none;" vertex="1" parent="HW7C5CbWFx42icMQMc7w-2">
                    <mxGeometry x="5" width="90" height="30" as="geometry"/>
                </mxCell>
                <mxCell id="HW7C5CbWFx42icMQMc7w-6" value="Join with Google Account" style="strokeWidth=1;shadow=0;dashed=0;align=center;html=1;shape=mxgraph.mockup.buttons.button;strokeColor=#666666;fontColor=#ffffff;mainText=;buttonStyle=round;fontSize=17;fontStyle=1;fillColor=#008cff;whiteSpace=wrap;" vertex="1" parent="HW7C5CbWFx42icMQMc7w-2">
                    <mxGeometry x="85" y="110" width="150" height="50" as="geometry"/>
                </mxCell>
            </root>
        </mxGraphModel>
    </diagram>
    <diagram id="b1DPeEgxVPPOAu9pEKwH" name="Page-3">
        <mxGraphModel dx="1183" dy="832" grid="1" gridSize="10" guides="1" tooltips="1" connect="1" arrows="1" fold="1" page="1" pageScale="1" pageWidth="1169" pageHeight="827" math="0" shadow="0">
            <root>
                <mxCell id="0"/>
                <mxCell id="1" parent="0"/>
                <mxCell id="7Pkhq0vWNNrKj_-Ukv0v-26" value="Home " style="html=1;shadow=0;dashed=0;shape=mxgraph.bootstrap.tabTop;strokeColor=#DFDFDF;fillColor=#ffffff;rSize=5;perimeter=none;whiteSpace=wrap;resizeWidth=1;align=center;spacing=20;fontSize=14;fontColor=#4B5259;" vertex="1" parent="1">
                    <mxGeometry x="40" y="40" width="80" height="40" as="geometry"/>
                </mxCell>
                <mxCell id="7Pkhq0vWNNrKj_-Ukv0v-27" value="Profile" style="strokeColor=none;fillColor=none;rSize=5;perimeter=none;whiteSpace=wrap;resizeWidth=1;align=center;spacing=20;fontSize=14;fontColor=#0085FC;" vertex="1" parent="1">
                    <mxGeometry x="125" y="40" width="50" height="40" as="geometry"/>
                </mxCell>
                <mxCell id="7Pkhq0vWNNrKj_-Ukv0v-28" value="Contact" style="strokeColor=none;fillColor=none;rSize=5;perimeter=none;whiteSpace=wrap;resizeWidth=1;align=center;spacing=20;fontSize=14;fontColor=#0085FC;" vertex="1" parent="1">
                    <mxGeometry x="185" y="40" width="50" height="40" as="geometry"/>
                </mxCell>
                <mxCell id="7Pkhq0vWNNrKj_-Ukv0v-29" value="" style="shape=line;strokeColor=#dddddd;fillColor=default;" vertex="1" parent="1">
                    <mxGeometry x="120" y="75" width="700" height="10" as="geometry"/>
                </mxCell>
                <mxCell id="7Pkhq0vWNNrKj_-Ukv0v-30" value="Raw denim you probably haven't heard of them jean shorts Austin. Nesciunt tofu stumptown aliqua, retro synth master cleanse. Mustache cliche tempor, williamsburg carles vegan helvetica. Reprehenderit butcher retro keffiyeh dreamcatcher synth. Cosby sweater eu banh mi, qui irure terry richardson ex squid. Aliquip placeat salvia cillum iphone. Seitan aliquip quis cardigan american apparel, butcher voluptate nisi qui." style="strokeColor=none;fillColor=none;whiteSpace=wrap;html=1;align=left;verticalAlign=top;fontSize=14;" vertex="1" parent="1">
                    <mxGeometry x="40" y="95" width="780" height="80" as="geometry"/>
                </mxCell>
                <mxCell id="7Pkhq0vWNNrKj_-Ukv0v-42" value="Example label" style="fillColor=none;strokeColor=none;align=left;fontSize=14;fontColor=#FFFFFF;" vertex="1" parent="1">
                    <mxGeometry x="150" y="200" width="260" height="40" as="geometry"/>
                </mxCell>
                <mxCell id="7Pkhq0vWNNrKj_-Ukv0v-43" value="Example input placeholder" style="html=1;shadow=0;dashed=0;shape=mxgraph.bootstrap.rrect;rSize=5;fillColor=none;strokeColor=#999999;align=left;spacing=15;fontSize=14;fontColor=#6C767D;" vertex="1" parent="1">
                    <mxGeometry width="390" height="30" relative="1" as="geometry">
                        <mxPoint x="150" y="240" as="offset"/>
                    </mxGeometry>
                </mxCell>
                <mxCell id="7Pkhq0vWNNrKj_-Ukv0v-44" value="Another label" style="fillColor=none;strokeColor=none;align=left;fontSize=14;fontColor=#FFFFFF;" vertex="1" parent="1">
                    <mxGeometry width="260" height="40" relative="1" as="geometry">
                        <mxPoint x="150" y="280" as="offset"/>
                    </mxGeometry>
                </mxCell>
                <mxCell id="7Pkhq0vWNNrKj_-Ukv0v-45" value="Another input placeholder" style="html=1;shadow=0;dashed=0;shape=mxgraph.bootstrap.rrect;rSize=5;fillColor=none;strokeColor=#999999;align=left;spacing=15;fontSize=14;fontColor=#6C767D;" vertex="1" parent="1">
                    <mxGeometry width="400" height="30" relative="1" as="geometry">
                        <mxPoint x="150" y="320" as="offset"/>
                    </mxGeometry>
                </mxCell>
                <mxCell id="7Pkhq0vWNNrKj_-Ukv0v-46" value="Password" style="fillColor=none;strokeColor=none;align=left;fontSize=14;fontColor=#FFFFFF;" vertex="1" parent="1">
                    <mxGeometry x="90" y="360" width="70" height="40" as="geometry"/>
                </mxCell>
                <mxCell id="7Pkhq0vWNNrKj_-Ukv0v-47" value="" style="html=1;shadow=0;dashed=0;shape=mxgraph.bootstrap.rrect;rSize=5;fillColor=none;strokeColor=#999999;align=left;spacing=15;fontSize=14;fontColor=#6C767D;" vertex="1" parent="1">
                    <mxGeometry x="240" y="360" width="200" height="40" as="geometry"/>
                </mxCell>
                <mxCell id="7Pkhq0vWNNrKj_-Ukv0v-48" value="Must be 8-20 characters long." style="fillColor=none;strokeColor=none;align=left;spacing=2;fontSize=12;fontColor=#999999;" vertex="1" parent="1">
                    <mxGeometry x="450" y="360" width="170" height="40" as="geometry"/>
                </mxCell>
                <mxCell id="7Pkhq0vWNNrKj_-Ukv0v-49" value="Re-type Password" style="fillColor=none;strokeColor=none;align=left;fontSize=14;fontColor=#FFFFFF;" vertex="1" parent="1">
                    <mxGeometry x="90" y="414" width="70" height="40" as="geometry"/>
                </mxCell>
                <mxCell id="7Pkhq0vWNNrKj_-Ukv0v-50" value="" style="html=1;shadow=0;dashed=0;shape=mxgraph.bootstrap.rrect;rSize=5;fillColor=none;strokeColor=#999999;align=left;spacing=15;fontSize=14;fontColor=#6C767D;" vertex="1" parent="1">
                    <mxGeometry x="240" y="414" width="200" height="40" as="geometry"/>
                </mxCell>
                <mxCell id="7Pkhq0vWNNrKj_-Ukv0v-51" value="Must be 8-20 characters long." style="fillColor=none;strokeColor=none;align=left;spacing=2;fontSize=12;fontColor=#999999;" vertex="1" parent="1">
                    <mxGeometry x="450" y="414" width="170" height="40" as="geometry"/>
                </mxCell>
            </root>
        </mxGraphModel>
    </diagram>
</mxfile>